<?xml version="1.0" encoding="utf-8"?>
<!-- Generator: Adobe Illustrator 21.0.0, SVG Export Plug-In . SVG Version: 6.00 Build 0)  -->
<svg version="1.1" id="Capa_1" xmlns="http://www.w3.org/2000/svg" xmlns:xlink="http://www.w3.org/1999/xlink" x="0px" y="0px"
	 viewBox="0 0 493.5 493.5" style="enable-background:new 0 0 493.5 493.5;" xml:space="preserve">
<g id="Layer_2">
	<path d="M176.6,249.9l-83.4,83.4c-0.8-1.6-1.3-3.3-1.3-5.1V165.3c0,0,0-0.1,0-0.1L176.6,249.9z"/>
	<path d="M300.2,266.6l73.4,73.4H119.9l73.4-73.4l33.1,33.1c5.4,5.4,12.7,8.4,20.3,8.4s14.9-3,20.3-8.4L300.2,266.6z"/>
	<path d="M243.1,283L113.6,153.5h266.2L250.4,283C248.4,285,245,285,243.1,283z"/>
	<path d="M401.6,165.2c0,0,0,0.1,0,0.1v162.8c0,1.9-0.5,3.6-1.3,5.1l-83.4-83.4L401.6,165.2z"/>
	<path d="M0,0v493.5h493.5V0H0z M425.2,328.2c0,19.5-15.9,35.4-35.4,35.4H103.7c-19.5,0-35.4-15.9-35.4-35.4V165.3
		c0-19.5,15.9-35.4,35.4-35.4h286.1c19.5,0,35.4,15.9,35.4,35.4V328.2z"/>
</g>
</svg>
