<?xml version="1.0" encoding="utf-8"?>
<!-- Generator: Adobe Illustrator 21.0.0, SVG Export Plug-In . SVG Version: 6.00 Build 0)  -->
<svg version="1.1" id="Layer_1" xmlns="http://www.w3.org/2000/svg" xmlns:xlink="http://www.w3.org/1999/xlink" x="0px" y="0px"
	 viewBox="0 0 1000 1000" style="enable-background:new 0 0 1000 1000;" xml:space="preserve">
<style type="text/css">
	.st0{fill:#FFFFFF;}
</style>
<path class="st0" d="M0,0v1000h1000V0H0z M777.7,490.3c-0.3,0.8-0.5,1.6-0.7,2.4c0,0,0,0,0,0.1c0,0.2-0.1,0.4-0.2,0.6
	c-1.4,3.1-2.7,6.3-3.8,9.5c-1.1,1.7-1.8,3.8-2,6.5c-0.9,2-1.7,4-2.4,6.2c-2.4,5.7-4.8,11.4-7.1,17.1c-0.1,0.2-0.2,0.5-0.3,0.7
	c-34.6,52.3-95.5,78.5-176.7,84.5c9.6,20.9,28,28.9,32.6,62.6c6.7,50.3-10.5,123.9,6.4,157.4c8.1,16,21.4,16.5,30.3,30.2
	c-21.9,25.9-76.2-2.9-82.4-30.2c-10.6-46.7,16.1-119.3-13-151c2.1,51-12,122.6,2.2,168.3c5.6,17.9,21.8,24.9,17.4,41
	c-101.8,10.3-59.3-131.8-75.9-215.6c-15.4,1.1-8.6,23-8.7,32.3c-0.5,82,16.8,194.3-71.5,183.3c-2.6-17.2,11.9-23.1,17.4-38.8
	c16.1-46.1-3-114.8,4.4-170.4c-33.7,25.4,3.5,114.1-17.4,159.7c-12,26.1-50.8,37.5-80.2,25.9c3.8-19.5,24-16.3,32.5-34.5
	c11.9-25.4,0.1-61.9,4.3-99.3c-62.4,12.5-110.8-1.8-134.5-41c-10.6-17.6-13.2-38.3-26-53.9c-12.8-15.7-33.1-17.7-39-38.9
	c77.2-18.6,80.2,79.5,149.6,81.9c21.3,0.8,32.3-6.2,52-10.7c5.5-24.7,17.3-43.2,34.7-56.1C335,608.1,264.8,582,231,519.9
	c-0.8-2.2-1.8-4.3-2.8-6.4c-1.4-2.9-2.8-6.2-4.9-8.8c-0.8-1.6-1.8-3.2-2.8-4.8c-1-1.7-1.9-3.4-2.9-5.1c-0.3-0.6-0.7-1.2-1.1-1.8
	c-0.1-0.2-0.2-0.4-0.3-0.6c0,0,0,0,0-0.1c-0.1-0.4-0.3-0.8-0.5-1.1C193.5,419.9,201.5,308,250.8,266c-14-35.3-9.7-93.2,8.7-120.8
	c55.3,2.5,88.8,26.6,123.6,49.6c43.1-12.3,88.4-18.3,147.4-15.1c24.8,1.4,50.7,12.5,69.4,10.8c18.4-1.7,38.6-22.3,56.4-30.2
	c23.2-10.3,42.8-14.1,69.4-15.1c12.7,29,21,77,8.7,112.2C784.8,300.4,802.1,404.8,777.7,490.3z"/>
</svg>
